<?xml version="1.0" encoding="iso-8859-1"?>
<!-- Generator: Adobe Illustrator 18.0.0, SVG Export Plug-In . SVG Version: 6.00 Build 0)  -->
<!DOCTYPE svg PUBLIC "-//W3C//DTD SVG 1.1//EN" "http://www.w3.org/Graphics/SVG/1.1/DTD/svg11.dtd">
<svg version="1.1" id="Capa_1" xmlns="http://www.w3.org/2000/svg" xmlns:xlink="http://www.w3.org/1999/xlink" x="0px" y="0px"
	 viewBox="0 0 220 220" style="enable-background:new 0 0 220 220;" xml:space="preserve">
<path d="M110,0C49.346,0,0,49.346,0,110s49.346,110,110,110s110-49.346,110-110S170.654,0,110,0z M110,190
	c-44.112,0-80-35.888-80-80s35.888-80,80-80c44.112,0,80,35.888,80,80S154.112,190,110,190z M139.718,128.264l16.218,15.065
	l-8.172,7.152c-10.236,8.956-23.312,13.89-36.817,13.89c-30.344,0-55.031-24.178-55.031-53.895
	c0-29.649,24.687-53.771,55.031-53.771c13.516,0,26.548,4.888,36.692,13.764l7.873,6.89L139.97,92.91l-6.901-6.097
	c-5.937-5.243-13.792-8.131-22.122-8.131c-18.226,0-33.054,14.263-33.054,31.793c0,17.6,14.828,31.918,33.054,31.918
	c8.238,0,16.094-2.933,22.122-8.258L139.718,128.264z"/>
<g>
</g>
<g>
</g>
<g>
</g>
<g>
</g>
<g>
</g>
<g>
</g>
<g>
</g>
<g>
</g>
<g>
</g>
<g>
</g>
<g>
</g>
<g>
</g>
<g>
</g>
<g>
</g>
<g>
</g>
</svg>
